<svg id="Layer_1" data-name="Layer 1" xmlns="http://www.w3.org/2000/svg" viewBox="0 0 82.8 44.6"><defs><style>.cls-1{fill:#162d54;}</style></defs><title>ancisun_logo</title><path class="cls-1" d="M261.42,256.64l21.6,43.6h-7.8l-7-14.2h-19.6l-7.2,14.2h-3.9l21.9-43.6Zm-11.5,26.7h16.9l-8.3-16.8Z" transform="translate(-237.52 -256.54)"/><path class="cls-1" d="M304.32,298.44a12.42,12.42,0,0,0,3.3-.4,10.11,10.11,0,0,0,3-1.3,7,7,0,0,0,2.1-2.1,5.47,5.47,0,0,0,.8-2.9,6.06,6.06,0,0,0-1.1-3.5,14.83,14.83,0,0,0-2.8-2.8c-1.2-.8-2.5-1.6-4-2.4s-3-1.5-4.6-2.2a40.18,40.18,0,0,1-4.6-2.4,23.71,23.71,0,0,1-4-2.8,13.43,13.43,0,0,1-2.9-3.4,8.86,8.86,0,0,1-1.1-4.3,9.88,9.88,0,0,1,1-4.5,10.05,10.05,0,0,1,2.9-3.6,14.84,14.84,0,0,1,4.7-2.4,20.6,20.6,0,0,1,6.4-.9,25.22,25.22,0,0,1,5.8.6,15.26,15.26,0,0,1,4.5,1.9,12.19,12.19,0,0,1,3.3,3.1,16.67,16.67,0,0,1,2.2,4.2l-3.9,1.7a20.17,20.17,0,0,0-1.8-3.6,11.56,11.56,0,0,0-2.6-2.8,10.08,10.08,0,0,0-3.4-1.8,15.1,15.1,0,0,0-4.4-.6,11.22,11.22,0,0,0-3.8.6,8.65,8.65,0,0,0-2.7,1.5,5.37,5.37,0,0,0-1.6,2.1,4.79,4.79,0,0,0-.5,2.3,5.33,5.33,0,0,0,1.1,3.1,12.42,12.42,0,0,0,2.9,2.6,39.23,39.23,0,0,0,4.2,2.4c1.6.8,3.1,1.5,4.7,2.3s3.2,1.6,4.7,2.5a34,34,0,0,1,4.2,2.8,12.76,12.76,0,0,1,2.9,3.3,8.11,8.11,0,0,1,1.1,4.1,11.17,11.17,0,0,1-1,4.8,10.53,10.53,0,0,1-3.1,3.9,15.32,15.32,0,0,1-5.1,2.6,24.8,24.8,0,0,1-7.1,1,21.23,21.23,0,0,1-5.9-.7,17.14,17.14,0,0,1-4.6-1.9,14.46,14.46,0,0,1-3.4-3.1,16.86,16.86,0,0,1-2.3-4.2l4.1-1.6a12,12,0,0,0,2,3.7,14.85,14.85,0,0,0,2.8,2.8,11.9,11.9,0,0,0,3.6,1.7A12,12,0,0,0,304.32,298.44Z" transform="translate(-237.52 -256.54)"/></svg>