<?xml version="1.0" encoding="utf-8"?>
<!-- Generator: Adobe Illustrator 24.0.0, SVG Export Plug-In . SVG Version: 6.00 Build 0)  -->
<svg version="1.1" id="Layer_1" xmlns="http://www.w3.org/2000/svg" xmlns:xlink="http://www.w3.org/1999/xlink" x="0px" y="0px"
	 viewBox="0 0 100 100" style="enable-background:new 0 0 100 100;" xml:space="preserve">
<style type="text/css">
	.st0{fill:#9E1F63;}
</style>
<g>
	<path class="st0" d="M32.9,22.2l21.6,43.6h-7.8l-7-14.2H20.1l-7.2,14.2H9l21.9-43.6H32.9z M21.4,48.9h16.9L30,32.1L21.4,48.9z"/>
	<path class="st0" d="M75.8,64c1.1,0,2.2-0.1,3.3-0.4c1.1-0.3,2.1-0.7,3-1.3c0.9-0.6,1.6-1.3,2.1-2.1c0.5-0.8,0.8-1.8,0.8-2.9
		c0-1.3-0.4-2.5-1.1-3.5s-1.7-1.9-2.8-2.8c-1.2-0.8-2.5-1.6-4-2.4c-1.5-0.7-3-1.5-4.6-2.2s-3.1-1.5-4.6-2.4s-2.8-1.7-4-2.8
		c-1.2-1-2.1-2.1-2.9-3.4c-0.7-1.3-1.1-2.7-1.1-4.3c0-1.6,0.3-3.1,1-4.5s1.6-2.6,2.9-3.6s2.8-1.8,4.7-2.4c1.8-0.6,4-0.9,6.4-0.9
		c2.2,0,4.1,0.2,5.8,0.6c1.7,0.4,3.2,1.1,4.5,1.9s2.4,1.9,3.3,3.1s1.6,2.6,2.2,4.2l-3.9,1.7c-0.5-1.3-1.1-2.5-1.8-3.6
		c-0.7-1.1-1.6-2-2.6-2.8s-2.1-1.4-3.4-1.8s-2.8-0.6-4.4-0.6c-1.4,0-2.7,0.2-3.8,0.6c-1.1,0.4-2,0.9-2.7,1.5s-1.3,1.3-1.6,2.1
		c-0.4,0.8-0.5,1.5-0.5,2.3c0,1.1,0.4,2.1,1.1,3.1c0.7,0.9,1.7,1.8,2.9,2.6c1.2,0.8,2.6,1.6,4.2,2.4s3.1,1.5,4.7,2.3
		s3.2,1.6,4.7,2.5c1.6,0.9,2.9,1.8,4.2,2.8c1.2,1,2.2,2.1,2.9,3.3c0.7,1.2,1.1,2.6,1.1,4.1c0,1.7-0.3,3.3-1,4.8s-1.7,2.8-3.1,3.9
		s-3.1,2-5.1,2.6s-4.4,1-7.1,1c-2.2,0-4.2-0.2-5.9-0.7c-1.7-0.4-3.2-1.1-4.6-1.9c-1.3-0.9-2.5-1.9-3.4-3.1s-1.7-2.6-2.3-4.2l4.1-1.6
		c0.5,1.4,1.1,2.6,2,3.7c0.8,1.1,1.8,2,2.8,2.8c1.1,0.8,2.3,1.3,3.6,1.7C72.9,63.8,74.3,64,75.8,64z"/>
</g>
</svg>
